<?xml version="1.0" encoding="UTF-8" standalone="no"?>
<!-- Created with Inkscape (http://www.inkscape.org/) -->

<svg
   xmlns:dc="http://purl.org/dc/elements/1.1/"
   xmlns:cc="http://creativecommons.org/ns#"
   xmlns:rdf="http://www.w3.org/1999/02/22-rdf-syntax-ns#"
   xmlns:svg="http://www.w3.org/2000/svg"
   xmlns="http://www.w3.org/2000/svg"
   xmlns:sodipodi="http://sodipodi.sourceforge.net/DTD/sodipodi-0.dtd"
   xmlns:inkscape="http://www.inkscape.org/namespaces/inkscape"
   version="1.0"
   x="0.00000000"
   y="0.00000000"
   width="44"
   height="44"
   id="svg2"
   sodipodi:version="0.32"
   inkscape:version="0.48.5 r10040"
   sodipodi:docname="rosa-dos-ventos2.svg"
   inkscape:label="napisy">
  <metadata
     id="metadata36">
    <rdf:RDF>
      <cc:Work
         rdf:about="">
        <dc:format>image/svg+xml</dc:format>
        <dc:type
           rdf:resource="http://purl.org/dc/dcmitype/StillImage" />
        <dc:title />
      </cc:Work>
    </rdf:RDF>
  </metadata>
  <sodipodi:namedview
     inkscape:window-height="845"
     inkscape:window-width="1152"
     inkscape:pageshadow="2"
     inkscape:pageopacity="0.0"
     borderopacity="1.0"
     bordercolor="#666666"
     pagecolor="#ffffff"
     id="base"
     inkscape:zoom="1.1775672"
     inkscape:cx="314.56374"
     inkscape:cy="-83.446205"
     inkscape:window-x="0"
     inkscape:window-y="31"
     inkscape:current-layer="layer5"
     showgrid="false"
     inkscape:window-maximized="0" />
  <defs
     id="defs4" />
  <g
     inkscape:groupmode="layer"
     id="layer7"
     inkscape:label="p4"
     style="display:inline"
     transform="translate(0,-556)" />
  <g
     style="display:inline"
     id="layer3"
     transform="translate(0,-556)" />
  <g
     style="display:inline"
     id="layer4"
     transform="translate(0,-556)" />
  <g
     inkscape:groupmode="layer"
     id="layer1"
     inkscape:label="p3"
     style="display:inline"
     transform="translate(0,-556)" />
  <g
     inkscape:groupmode="layer"
     id="layer6"
     inkscape:label="p2"
     style="display:inline"
     transform="translate(0,-556)" />
  <g
     inkscape:groupmode="layer"
     id="layer2"
     inkscape:label="podstawowa"
     style="display:inline"
     sodipodi:insensitive="true"
     transform="translate(0,-556)">
    <g
       transform="matrix(0.06512926,0,0,0.06343238,0.43150246,556.53447)"
       id="g11797">
      <path
         d="m 330.74501,304.6637 32.8331,32.8331 -0.016,0 -242.85201,0 210.03488,-32.8331"
         style="fill:#ffffff;fill-opacity:1;fill-rule:evenodd;stroke:#000000;stroke-width:1;stroke-linecap:square;stroke-linejoin:miter;stroke-miterlimit:4;stroke-opacity:1;stroke-dasharray:none;display:inline"
         id="path2122"
         inkscape:connector-curvature="0" />
      <path
         d="m 330.74501,371.3299 32.8331,-32.8331 -0.016,0 -242.85201,0 210.03488,32.8331"
         style="fill:#000000;fill-opacity:1;fill-rule:evenodd;stroke:#000000;stroke-width:1;stroke-linecap:square;stroke-linejoin:miter;stroke-miterlimit:4;stroke-opacity:1;stroke-dasharray:none;display:inline"
         id="path5805"
         inkscape:connector-curvature="0" />
      <path
         d="m 397.41118,371.32995 -32.8331,-32.8331 0.016,0 242.85201,0 -210.03488,32.8331"
         style="fill:#ffffff;fill-opacity:1;fill-rule:evenodd;stroke:#000000;stroke-width:1;stroke-linecap:square;stroke-linejoin:miter;stroke-miterlimit:4;stroke-opacity:1;stroke-dasharray:none;display:inline"
         id="path8724"
         inkscape:connector-curvature="0" />
      <path
         d="m 397.41118,304.66375 -32.8331,32.8331 0.016,0 242.85201,0 -210.03488,-32.8331"
         style="fill:#000000;fill-opacity:1;fill-rule:evenodd;stroke:#000000;stroke-width:1;stroke-linecap:square;stroke-linejoin:miter;stroke-miterlimit:4;stroke-opacity:1;stroke-dasharray:none;display:inline"
         id="path8726"
         inkscape:connector-curvature="0" />
      <path
         d="m 330.74499,371.32988 32.8331,-32.8331 0,0.016 0,242.85201 -32.8331,-210.03488"
         style="fill:#ffffff;fill-opacity:1;fill-rule:evenodd;stroke:#000000;stroke-width:1;stroke-linecap:square;stroke-linejoin:miter;stroke-miterlimit:4;stroke-opacity:1;stroke-dasharray:none;display:inline"
         id="path8740"
         inkscape:connector-curvature="0" />
      <path
         d="m 397.41119,371.32988 -32.8331,-32.8331 0,0.016 0,242.85201 32.8331,-210.03488"
         style="fill:#000000;fill-opacity:1;fill-rule:evenodd;stroke:#000000;stroke-width:1;stroke-linecap:square;stroke-linejoin:miter;stroke-miterlimit:4;stroke-opacity:1;stroke-dasharray:none;display:inline"
         id="path8742"
         inkscape:connector-curvature="0" />
      <path
         d="m 397.41115,304.66372 -32.8331,32.8331 0,-0.016 0,-242.85201 32.8331,210.03488"
         style="fill:#ffffff;fill-opacity:1;fill-rule:evenodd;stroke:#000000;stroke-width:1;stroke-linecap:square;stroke-linejoin:miter;stroke-miterlimit:4;stroke-opacity:1;stroke-dasharray:none;display:inline"
         id="path8746"
         inkscape:connector-curvature="0" />
      <path
         d="m 330.74495,304.66372 32.8331,32.8331 0,-0.016 0,-242.85201 -32.8331,210.03488"
         style="fill:#000000;fill-opacity:1;fill-rule:evenodd;stroke:#000000;stroke-width:1;stroke-linecap:square;stroke-linejoin:miter;stroke-miterlimit:4;stroke-opacity:1;stroke-dasharray:none;display:inline"
         id="path8748"
         inkscape:connector-curvature="0" />
    </g>
  </g>
  <g
     inkscape:groupmode="layer"
     id="layer5"
     inkscape:label="napisy"
     style="display:inline"
     transform="translate(0,-556)">
    <g
       id="g1461"
       inkscape:label="p4"
       style="display:inline"
       transform="translate(1.182297,-1.05875)" />
    <g
       style="display:inline"
       id="g1463"
       transform="translate(1.182297,-1.05875)" />
    <g
       style="display:inline"
       id="g1465"
       transform="translate(1.182297,-1.05875)" />
    <g
       id="g1467"
       inkscape:label="p3"
       style="display:inline"
       transform="translate(1.182297,-1.05875)" />
    <g
       id="g1469"
       inkscape:label="p2"
       style="display:inline"
       transform="translate(1.182297,-1.05875)" />
    <g
       id="g1471"
       inkscape:label="podstawowa"
       style="display:inline"
       transform="translate(1.182297,-1.05875)" />
    <path
       d="m 22.180707,556.43676 1.276173,0 1.611485,3.03901 0,-3.03901 1.083258,0 0,4.4309 -1.276174,0 -1.611485,-3.03901 0,3.03901 -1.083257,0 0,-4.4309"
       style="font-size:40px;font-style:normal;font-variant:normal;font-weight:bold;font-stretch:normal;text-align:start;line-height:125%;writing-mode:lr-tb;text-anchor:start;fill:#000000;fill-opacity:1;stroke:none;font-family:Bitstream Vera Sans"
       id="path1476"
       inkscape:connector-curvature="0" />
    <path
       d="m 40.788167,575.76223 3.494963,0 0,0.9449 -2.199904,0 0,0.9027 2.06872,0 0,0.94494 -2.06872,0 0,1.11052 2.273901,0 0,0.9449 -3.56896,0 0,-4.84796"
       style="font-size:40px;font-style:normal;font-variant:normal;font-weight:bold;font-stretch:normal;text-align:start;line-height:125%;writing-mode:lr-tb;text-anchor:start;fill:#000000;fill-opacity:1;stroke:none;display:inline;font-family:Bitstream Vera Sans"
       id="path1478"
       inkscape:connector-curvature="0" />
    <path
       d="m 1.3571272,575.80636 1.0696496,0 0.7478734,3.22459 0.7420984,-3.22459 1.0754253,0 0.7420984,3.22459 0.7478719,-3.22459 1.0609452,0 -1.0203551,4.43716 -1.2870656,0 -0.7855439,-3.37317 -0.7768746,3.37317 -1.2870634,0 -1.0290596,-4.43716"
       style="font-size:40px;font-style:normal;font-variant:normal;font-weight:bold;font-stretch:normal;text-align:start;line-height:125%;writing-mode:lr-tb;text-anchor:start;fill:#000000;fill-opacity:1;stroke:none;display:inline;font-family:Bitstream Vera Sans"
       id="path1480"
       inkscape:connector-curvature="0" />
    <path
       d="m 25.904891,594.72905 0,1.03419 c -0.278506,-0.12003 -0.550303,-0.21058 -0.815224,-0.27164 -0.264992,-0.0611 -0.515223,-0.0917 -0.750762,-0.0917 -0.312528,10e-6 -0.543521,0.0415 -0.69298,0.12436 -0.149473,0.0829 -0.224199,0.21167 -0.224198,0.38621 -1e-6,0.13094 0.04987,0.23347 0.149461,0.30761 0.101955,0.072 0.285343,0.13422 0.550341,0.18654 l 0.557096,0.10801 c 0.563865,0.1091 0.964708,0.2749 1.2025,0.49745 0.237811,0.22254 0.356716,0.5389 0.356719,0.94912 -3e-6,0.5389 -0.166455,0.94036 -0.499353,1.20433 -0.330634,0.26184 -0.836787,0.39273 -1.518482,0.39273 -0.321568,0 -0.644269,-0.0294 -0.968115,-0.0884 -0.323815,-0.0589 -0.647701,-0.1462 -0.971505,-0.26184 l 0,-1.06363 c 0.323804,0.16582 0.636335,0.2913 0.937542,0.37641 0.303434,0.0829 0.595611,0.12435 0.876404,0.12435 0.285371,0 0.503908,-0.0459 0.655615,-0.13747 0.151754,-0.0916 0.227617,-0.22254 0.22762,-0.39273 -3e-6,-0.15272 -0.05209,-0.27055 -0.156262,-0.35343 -0.101954,-0.0829 -0.306866,-0.15708 -0.614884,-0.22254 l -0.506155,-0.10802 c -0.507272,-0.10474 -0.878625,-0.27161 -1.11416,-0.50073 -0.233255,-0.2291 -0.349902,-0.53782 -0.349902,-0.92618 0,-0.48653 0.163071,-0.86073 0.489184,-1.12253 0.32607,-0.26183 0.794858,-0.39272 1.406307,-0.39272 0.278563,0 0.565014,0.0208 0.85946,0.0622 0.294359,0.0392 0.598974,0.0992 0.913733,0.17999"
       style="font-size:40px;font-style:normal;font-variant:normal;font-weight:bold;font-stretch:normal;text-align:start;line-height:125%;writing-mode:lr-tb;text-anchor:start;fill:#000000;fill-opacity:1;stroke:none;display:inline;font-family:Bitstream Vera Sans"
       id="path1482-3"
       inkscape:connector-curvature="0" />
  </g>
</svg>
