<?xml version="1.0" encoding="UTF-8" standalone="no"?>
<!-- Created with Inkscape (http://www.inkscape.org/) -->

<svg
   xmlns:dc="http://purl.org/dc/elements/1.1/"
   xmlns:cc="http://creativecommons.org/ns#"
   xmlns:rdf="http://www.w3.org/1999/02/22-rdf-syntax-ns#"
   xmlns:svg="http://www.w3.org/2000/svg"
   xmlns="http://www.w3.org/2000/svg"
   xmlns:sodipodi="http://sodipodi.sourceforge.net/DTD/sodipodi-0.dtd"
   xmlns:inkscape="http://www.inkscape.org/namespaces/inkscape"
   version="1.0"
   x="0.00000000"
   y="0.00000000"
   width="600.00000"
   height="600.00000"
   id="svg2"
   sodipodi:version="0.32"
   inkscape:version="0.48.5 r10040"
   sodipodi:docname="download.svg"
   inkscape:label="napisy">
  <metadata
     id="metadata36">
    <rdf:RDF>
      <cc:Work
         rdf:about="">
        <dc:format>image/svg+xml</dc:format>
        <dc:type
           rdf:resource="http://purl.org/dc/dcmitype/StillImage" />
      </cc:Work>
    </rdf:RDF>
  </metadata>
  <sodipodi:namedview
     inkscape:window-height="845"
     inkscape:window-width="1152"
     inkscape:pageshadow="2"
     inkscape:pageopacity="0.0"
     borderopacity="1.0"
     bordercolor="#666666"
     pagecolor="#ffffff"
     id="base"
     inkscape:zoom="1.1775672"
     inkscape:cx="311.1669"
     inkscape:cy="243.8884"
     inkscape:window-x="0"
     inkscape:window-y="31"
     inkscape:current-layer="layer5"
     showgrid="false"
     inkscape:window-maximized="0" />
  <defs
     id="defs4" />
  <g
     inkscape:groupmode="layer"
     id="layer7"
     inkscape:label="p4"
     style="display:inline" />
  <g
     style="display:inline"
     id="layer3" />
  <g
     style="display:inline"
     id="layer4" />
  <g
     inkscape:groupmode="layer"
     id="layer1"
     inkscape:label="p3"
     style="display:inline" />
  <g
     inkscape:groupmode="layer"
     id="layer6"
     inkscape:label="p2"
     style="display:inline" />
  <g
     inkscape:groupmode="layer"
     id="layer2"
     inkscape:label="podstawowa"
     style="display:inline">
    <g
       transform="matrix(0.90505371,0,0,0.8814734,-11.505604,1.7134438)"
       id="g11797">
      <path
         d="m 330.74501,304.6637 32.8331,32.8331 -0.016,0 -242.85201,0 210.03488,-32.8331"
         style="fill:#ffffff;fill-opacity:1;fill-rule:evenodd;stroke:#000000;stroke-width:1;stroke-linecap:square;stroke-linejoin:miter;stroke-miterlimit:4;stroke-opacity:1;stroke-dasharray:none;display:inline"
         id="path2122"
         inkscape:connector-curvature="0" />
      <path
         d="m 330.74501,371.3299 32.8331,-32.8331 -0.016,0 -242.85201,0 210.03488,32.8331"
         style="fill:#000000;fill-opacity:1;fill-rule:evenodd;stroke:#000000;stroke-width:1;stroke-linecap:square;stroke-linejoin:miter;stroke-miterlimit:4;stroke-opacity:1;stroke-dasharray:none;display:inline"
         id="path5805"
         inkscape:connector-curvature="0" />
      <path
         d="m 397.41118,371.32995 -32.8331,-32.8331 0.016,0 242.85201,0 -210.03488,32.8331"
         style="fill:#ffffff;fill-opacity:1;fill-rule:evenodd;stroke:#000000;stroke-width:1;stroke-linecap:square;stroke-linejoin:miter;stroke-miterlimit:4;stroke-opacity:1;stroke-dasharray:none;display:inline"
         id="path8724"
         inkscape:connector-curvature="0" />
      <path
         d="m 397.41118,304.66375 -32.8331,32.8331 0.016,0 242.85201,0 -210.03488,-32.8331"
         style="fill:#000000;fill-opacity:1;fill-rule:evenodd;stroke:#000000;stroke-width:1;stroke-linecap:square;stroke-linejoin:miter;stroke-miterlimit:4;stroke-opacity:1;stroke-dasharray:none;display:inline"
         id="path8726"
         inkscape:connector-curvature="0" />
      <path
         d="m 330.74499,371.32988 32.8331,-32.8331 0,0.016 0,242.85201 -32.8331,-210.03488"
         style="fill:#ffffff;fill-opacity:1;fill-rule:evenodd;stroke:#000000;stroke-width:1;stroke-linecap:square;stroke-linejoin:miter;stroke-miterlimit:4;stroke-opacity:1;stroke-dasharray:none;display:inline"
         id="path8740"
         inkscape:connector-curvature="0" />
      <path
         d="m 397.41119,371.32988 -32.8331,-32.8331 0,0.016 0,242.85201 32.8331,-210.03488"
         style="fill:#000000;fill-opacity:1;fill-rule:evenodd;stroke:#000000;stroke-width:1;stroke-linecap:square;stroke-linejoin:miter;stroke-miterlimit:4;stroke-opacity:1;stroke-dasharray:none;display:inline"
         id="path8742"
         inkscape:connector-curvature="0" />
      <path
         d="m 397.41115,304.66372 -32.8331,32.8331 0,-0.016 0,-242.85201 32.8331,210.03488"
         style="fill:#ffffff;fill-opacity:1;fill-rule:evenodd;stroke:#000000;stroke-width:1;stroke-linecap:square;stroke-linejoin:miter;stroke-miterlimit:4;stroke-opacity:1;stroke-dasharray:none;display:inline"
         id="path8746"
         inkscape:connector-curvature="0" />
      <path
         d="m 330.74495,304.66372 32.8331,32.8331 0,-0.016 0,-242.85201 -32.8331,210.03488"
         style="fill:#000000;fill-opacity:1;fill-rule:evenodd;stroke:#000000;stroke-width:1;stroke-linecap:square;stroke-linejoin:miter;stroke-miterlimit:4;stroke-opacity:1;stroke-dasharray:none;display:inline"
         id="path8748"
         inkscape:connector-curvature="0" />
    </g>
  </g>
  <g
     inkscape:groupmode="layer"
     id="layer5"
     inkscape:label="napisy"
     style="display:inline">
    <g
       id="g1461"
       inkscape:label="p4"
       style="display:inline"
       transform="translate(1.182297,-1.05875)" />
    <g
       style="display:inline"
       id="g1463"
       transform="translate(1.182297,-1.05875)" />
    <g
       style="display:inline"
       id="g1465"
       transform="translate(1.182297,-1.05875)" />
    <g
       id="g1467"
       inkscape:label="p3"
       style="display:inline"
       transform="translate(1.182297,-1.05875)" />
    <g
       id="g1469"
       inkscape:label="p2"
       style="display:inline"
       transform="translate(1.182297,-1.05875)" />
    <g
       id="g1471"
       inkscape:label="podstawowa"
       style="display:inline"
       transform="translate(1.182297,-1.05875)" />
    <path
       d="m 290.72721,0.355644 17.73404,0 22.39364,42.23094 0,-42.23094 15.05324,0 0,61.573 -17.73406,0 -22.39363,-42.230909 0,42.230909 -15.05323,0 0,-61.573"
       style="font-size:40px;font-style:normal;font-variant:normal;font-weight:bold;font-stretch:normal;text-align:start;line-height:125%;writing-mode:lr-tb;text-anchor:start;fill:#000000;fill-opacity:1;stroke:none;font-family:Bitstream Vera Sans"
       id="path1476"
       inkscape:connector-curvature="0" />
    <path
       d="m 549.30149,268.90768 48.56696,0 0,13.13058 -30.57046,0 0,12.54414 28.74749,0 0,13.13106 -28.74749,0 0,15.4321 31.59874,0 0,13.13058 -49.59524,0 0,-67.36846"
       style="font-size:40px;font-style:normal;font-variant:normal;font-weight:bold;font-stretch:normal;text-align:start;line-height:125%;writing-mode:lr-tb;text-anchor:start;fill:#000000;fill-opacity:1;stroke:none;display:inline;font-family:Bitstream Vera Sans"
       id="path1478"
       inkscape:connector-curvature="0" />
    <path
       d="m 1.3571272,269.52089 14.8641398,0 10.39265,44.80967 10.3124,-44.80967 14.9444,0 10.3124,44.80967 10.39263,-44.80967 14.74318,0 -14.17913,61.66 -17.88541,0 -10.91613,-46.87455 -10.79566,46.87455 -17.88538,0 -14.3000898,-61.66"
       style="font-size:40px;font-style:normal;font-variant:normal;font-weight:bold;font-stretch:normal;text-align:start;line-height:125%;writing-mode:lr-tb;text-anchor:start;fill:#000000;fill-opacity:1;stroke:none;display:inline;font-family:Bitstream Vera Sans"
       id="path1480"
       inkscape:connector-curvature="0" />
    <path
       d="m 342.47947,532.47561 0,14.3715 c -3.87019,-1.66797 -7.64715,-2.92631 -11.32857,-3.77478 -3.6824,-0.84932 -7.15967,-1.27386 -10.43279,-1.27388 -4.34297,2e-5 -7.55291,0.57654 -9.62983,1.72803 -2.07712,1.15243 -3.11554,2.9415 -3.11552,5.36686 -2e-5,1.81961 0.69301,3.24444 2.07695,4.27468 1.41679,1.0006 3.96521,1.86516 7.64769,2.59224 l 7.74155,1.5009 c 7.83563,1.51606 13.40585,3.82017 16.71027,6.91268 3.30469,3.09257 4.95702,7.48872 4.95706,13.18924 -4e-5,7.48877 -2.3131,13.06752 -6.93914,16.73575 -4.59458,3.63859 -11.62822,5.45746 -21.10124,5.45746 -4.46859,0 -8.95293,-0.40899 -13.45318,-1.22788 -4.49983,-0.81907 -9.00064,-2.03156 -13.5003,-3.63858 l 0,-14.78047 c 4.49966,2.30427 8.84268,4.04796 13.02833,5.23065 4.2166,1.15152 8.27677,1.72803 12.17875,1.72803 3.96559,0 7.00245,-0.63723 9.11061,-1.91028 2.10881,-1.27322 3.16302,-3.0925 3.16307,-5.45747 -5e-5,-2.12232 -0.72384,-3.75964 -2.17147,-4.91136 -1.41678,-1.15267 -4.26429,-2.18296 -8.54459,-3.09255 l -7.03367,-1.50113 c -7.04918,-1.45547 -12.20961,-3.77435 -15.48267,-6.95818 -3.24137,-3.18362 -4.86232,-7.47376 -4.86232,-12.87044 0,-6.761 2.26607,-11.96093 6.79782,-15.59897 4.53116,-3.63855 11.04557,-5.45742 19.54243,-5.45745 3.87098,3e-5 7.85158,0.28836 11.94328,0.86423 4.0905,0.54543 8.32351,1.379 12.69748,2.50117"
       style="font-size:40px;font-style:normal;font-variant:normal;font-weight:bold;font-stretch:normal;text-align:start;line-height:125%;writing-mode:lr-tb;text-anchor:start;fill:#000000;fill-opacity:1;stroke:none;display:inline;font-family:Bitstream Vera Sans"
       id="path1482-3"
       inkscape:connector-curvature="0" />
  </g>
</svg>
